<mxfile host="app.diagrams.net" modified="2020-12-25T01:57:24.602Z" agent="5.0 (Windows NT 10.0; Win64; x64) AppleWebKit/537.36 (KHTML, like Gecko) Chrome/87.0.4280.88 Safari/537.36" etag="m2trcd_YdqipgUoqgOAE" version="14.0.5" type="github">
  <diagram id="njKDM4iZIIbAl5jPewx6" name="第 1 页">
    <mxGraphModel dx="1422" dy="794" grid="1" gridSize="10" guides="1" tooltips="1" connect="1" arrows="1" fold="1" page="1" pageScale="1" pageWidth="827" pageHeight="1169" math="0" shadow="0">
      <root>
        <mxCell id="0" />
        <mxCell id="1" parent="0" />
        <mxCell id="GcPeJPP8QZwGE8nAlx6o-3" value="" style="edgeStyle=orthogonalEdgeStyle;rounded=0;orthogonalLoop=1;jettySize=auto;html=1;exitX=0.5;exitY=1;exitDx=0;exitDy=0;entryX=0.5;entryY=0;entryDx=0;entryDy=0;" edge="1" parent="1" source="GcPeJPP8QZwGE8nAlx6o-1" target="GcPeJPP8QZwGE8nAlx6o-2">
          <mxGeometry relative="1" as="geometry">
            <mxPoint x="400" y="297" as="targetPoint" />
          </mxGeometry>
        </mxCell>
        <mxCell id="GcPeJPP8QZwGE8nAlx6o-6" value="" style="edgeStyle=orthogonalEdgeStyle;rounded=0;orthogonalLoop=1;jettySize=auto;html=1;" edge="1" parent="1" source="GcPeJPP8QZwGE8nAlx6o-1" target="GcPeJPP8QZwGE8nAlx6o-5">
          <mxGeometry relative="1" as="geometry" />
        </mxCell>
        <mxCell id="GcPeJPP8QZwGE8nAlx6o-8" value="" style="edgeStyle=orthogonalEdgeStyle;rounded=0;orthogonalLoop=1;jettySize=auto;html=1;" edge="1" parent="1" source="GcPeJPP8QZwGE8nAlx6o-1" target="GcPeJPP8QZwGE8nAlx6o-7">
          <mxGeometry relative="1" as="geometry" />
        </mxCell>
        <mxCell id="GcPeJPP8QZwGE8nAlx6o-10" value="" style="edgeStyle=orthogonalEdgeStyle;rounded=0;orthogonalLoop=1;jettySize=auto;html=1;" edge="1" parent="1" source="GcPeJPP8QZwGE8nAlx6o-1" target="GcPeJPP8QZwGE8nAlx6o-9">
          <mxGeometry relative="1" as="geometry" />
        </mxCell>
        <mxCell id="GcPeJPP8QZwGE8nAlx6o-1" value="拓客" style="rounded=1;whiteSpace=wrap;html=1;" vertex="1" parent="1">
          <mxGeometry x="320" y="160" width="120" height="60" as="geometry" />
        </mxCell>
        <mxCell id="GcPeJPP8QZwGE8nAlx6o-2" value="CRM" style="whiteSpace=wrap;html=1;rounded=1;" vertex="1" parent="1">
          <mxGeometry x="320" y="300" width="120" height="60" as="geometry" />
        </mxCell>
        <mxCell id="GcPeJPP8QZwGE8nAlx6o-5" value="集客" style="whiteSpace=wrap;html=1;rounded=1;" vertex="1" parent="1">
          <mxGeometry x="520" y="160" width="120" height="60" as="geometry" />
        </mxCell>
        <mxCell id="GcPeJPP8QZwGE8nAlx6o-7" value="智能呼叫" style="whiteSpace=wrap;html=1;rounded=1;" vertex="1" parent="1">
          <mxGeometry x="120" y="160" width="120" height="60" as="geometry" />
        </mxCell>
        <mxCell id="GcPeJPP8QZwGE8nAlx6o-9" value="触达" style="whiteSpace=wrap;html=1;rounded=1;" vertex="1" parent="1">
          <mxGeometry x="320" y="20" width="120" height="60" as="geometry" />
        </mxCell>
      </root>
    </mxGraphModel>
  </diagram>
</mxfile>
